<svg width="360" height="398" viewBox="0 0 360 398" fill="none" xmlns="http://www.w3.org/2000/svg">
<path d="M-95.7959 74.5684L-95.6652 5.1856e-05L178.13 116.912L178 191.48L-95.7959 74.5684Z" fill="black" fill-opacity="0.16"/>
<path d="M452.203 75.5288L452.334 0.960379L178.13 116.912L178 191.48L452.203 75.5288Z" fill="black" fill-opacity="0.16"/>
<path d="M-93.7959 177.568L-93.6652 103L180.13 219.912L180 294.48L-93.7959 177.568Z" fill="black" fill-opacity="0.16"/>
<path d="M454.203 178.529L454.334 103.96L180.13 219.912L180 294.48L454.203 178.529Z" fill="black" fill-opacity="0.16"/>
<path d="M-93.7959 280.568L-93.6652 206L180.13 322.912L180 397.48L-93.7959 280.568Z" fill="black" fill-opacity="0.16"/>
<path d="M454.203 281.529L454.334 206.96L180.13 322.912L180 397.48L454.203 281.529Z" fill="black" fill-opacity="0.16"/>
</svg>
