<svg width="254" height="220" viewBox="0 0 254 220" fill="none" xmlns="http://www.w3.org/2000/svg">
<path d="M5.29166 119.165L1.76388 113.055L2.62991 112.555L1.1547 110L2.6299 107.445L1.76387 106.945L5.29165 100.835L6.15768 101.335L9.68545 95.2243L8.81943 94.7243L12.3472 88.614L13.2132 89.114L16.741 83.0037L15.875 82.5037L19.4028 76.3934L20.2688 76.8934L23.7966 70.7831L22.9305 70.2831L26.4583 64.1728L27.3243 64.6728L30.8521 58.5625L29.9861 58.0625L33.5139 51.9523L34.3799 52.4523L37.9077 46.342L37.0417 45.842L40.5694 39.7317L41.4355 40.2317L44.9632 34.1214L44.0972 33.6214L47.625 27.5111L48.491 28.0111L52.0188 21.9008L51.1528 21.4008L54.6805 15.2905L55.5466 15.7905L59.0744 9.68022L58.2083 9.18022L61.7361 3.06993L62.6021 3.56993L64.0773 1.01478L67.0278 1.01478L67.0278 0.0147828L74.0833 0.0147825L74.0833 1.01478L81.1389 1.01478L81.1389 0.0147822L88.1944 0.0147819L88.1944 1.01478L95.25 1.01478L95.25 0.0147816L102.306 0.0147813L102.306 1.01478L109.361 1.01478L109.361 0.014781L116.417 0.0147807L116.417 1.01478L123.472 1.01478L123.472 0.0147804L130.528 0.0147801L130.528 1.01478L137.583 1.01478L137.583 0.0147798L144.639 0.0147794L144.639 1.01478L151.694 1.01478L151.694 0.0147791L158.75 0.0147788L158.75 1.01478L165.806 1.01478L165.806 0.0147785L172.861 0.0147782L172.861 1.01478L179.917 1.01478L179.917 0.0147779L186.972 0.0147776L186.972 1.01478L189.923 1.01478L191.398 3.56989L192.264 3.06989L195.792 9.1802L194.926 9.6802L198.453 15.7905L199.319 15.2905L202.847 21.4008L201.981 21.9008L205.509 28.0111L206.375 27.5111L209.903 33.6214L209.037 34.1214L212.565 40.2316L213.431 39.7316L216.958 45.8419L216.092 46.3419L219.62 52.4522L220.486 51.9522L224.014 58.0625L223.148 58.5625L226.676 64.6728L227.542 64.1728L231.069 70.2831L230.203 70.7831L233.731 76.8934L234.597 76.3934L238.125 82.5037L237.259 83.0037L240.787 89.114L241.653 88.614L245.181 94.7243L244.315 95.2243L247.842 101.335L248.708 100.835L252.236 106.945L251.37 107.445L252.845 110L251.37 112.555L252.236 113.055L248.708 119.165L247.842 118.665L244.315 124.776L245.181 125.276L241.653 131.386L240.787 130.886L237.259 136.996L238.125 137.496L234.597 143.607L233.731 143.107L230.203 149.217L231.069 149.717L227.542 155.827L226.676 155.327L223.148 161.437L224.014 161.937L220.486 168.048L219.62 167.548L216.092 173.658L216.958 174.158L213.431 180.268L212.565 179.768L209.037 185.879L209.903 186.379L206.375 192.489L205.509 191.989L201.981 198.099L202.847 198.599L199.319 204.709L198.453 204.209L194.926 210.32L195.792 210.82L192.264 216.93L191.398 216.43L189.923 218.985L186.972 218.985L186.972 219.985L179.917 219.985L179.917 218.985L172.861 218.985L172.861 219.985L165.806 219.985L165.806 218.985L158.75 218.985L158.75 219.985L151.694 219.985L151.694 218.985L144.639 218.985L144.639 219.985L137.583 219.985L137.583 218.985L130.528 218.985L130.528 219.985L123.472 219.985L123.472 218.985L116.417 218.985L116.417 219.985L109.361 219.985L109.361 218.985L102.306 218.985L102.306 219.985L95.25 219.985L95.25 218.985L88.1944 218.985L88.1944 219.985L81.1389 219.985L81.1389 218.985L74.0833 218.985L74.0833 219.985L67.0278 219.985L67.0278 218.985L64.0774 218.985L62.6021 216.43L61.7361 216.93L58.2083 210.82L59.0744 210.32L55.5466 204.21L54.6806 204.71L51.1528 198.599L52.0188 198.099L48.491 191.989L47.625 192.489L44.0972 186.379L44.9633 185.879L41.4355 179.768L40.5694 180.268L37.0417 174.158L37.9077 173.658L34.3799 167.548L33.5139 168.048L29.9861 161.937L30.8521 161.437L27.3244 155.327L26.4583 155.827L22.9306 149.717L23.7966 149.217L20.2688 143.107L19.4028 143.607L15.875 137.496L16.741 136.996L13.2132 130.886L12.3472 131.386L8.81944 125.276L9.68547 124.776L6.15769 118.665L5.29166 119.165Z" stroke="white" stroke-width="2" stroke-dasharray="7 7"/>
</svg>
